<svg width="20" height="20" viewBox="0 0 20 20" fill="none" xmlns="http://www.w3.org/2000/svg">
<path d="M19.9668 6.24728C19.6749 3.03402 17.4005 0.702731 14.5542 0.702731C12.6579 0.702731 10.9217 1.72318 9.94471 3.35865C8.97658 1.70202 7.31148 0.702347 5.44561 0.702347C2.59967 0.702347 0.324928 3.03364 0.0333724 6.2469C0.0102942 6.38883 -0.0843267 7.1358 0.203382 8.35394C0.618021 10.111 1.57577 11.7091 2.97239 12.9746L9.9401 19.2977L17.0274 12.975C18.424 11.7091 19.3818 10.1114 19.7964 8.35394C20.0841 7.13618 19.9895 6.38921 19.9668 6.24728ZM19.0475 8.17778C18.6691 9.78249 17.7917 11.2445 16.5128 12.403L9.94471 18.263L3.48934 12.4046C2.20811 11.2437 1.33114 9.7821 0.952272 8.17739C0.679948 7.02464 0.791878 6.37344 0.792262 6.36921L0.798032 6.33036C1.04805 3.5152 3.00239 1.47162 5.44561 1.47162C7.2484 1.47162 8.83542 2.57938 9.58854 4.36217L9.94279 5.20184L10.297 4.36217C11.0382 2.60669 12.7091 1.47201 14.5546 1.47201C16.9974 1.47201 18.9522 3.51559 19.2072 6.36729C19.2079 6.37344 19.3199 7.02502 19.0475 8.17778Z" fill="white"/>
</svg>
