<svg width="113" height="27" viewBox="0 0 113 27" fill="none" xmlns="http://www.w3.org/2000/svg">
<path d="M5.912 0.799998H0.404V26H3.86V8.18L6.812 26H10.556L13.292 7.928V26H17.036V0.799998H11.528L8.828 18.692L5.912 0.799998ZM23.5526 6.596C23.5526 4.796 24.3446 4.112 25.6046 4.112C26.8646 4.112 27.6566 4.796 27.6566 6.596V20.204C27.6566 22.004 26.8646 22.688 25.6046 22.688C24.3446 22.688 23.5526 22.004 23.5526 20.204V6.596ZM19.5926 19.952C19.5926 23.984 21.7166 26.288 25.6046 26.288C29.4926 26.288 31.6166 23.984 31.6166 19.952V6.848C31.6166 2.816 29.4926 0.512 25.6046 0.512C21.7166 0.512 19.5926 2.816 19.5926 6.848V19.952ZM34.19 26H40.454C44.414 26 46.358 23.804 46.358 19.772V7.028C46.358 2.996 44.414 0.799998 40.454 0.799998H34.19V26ZM40.382 4.4C41.642 4.4 42.398 5.048 42.398 6.848V19.952C42.398 21.752 41.642 22.4 40.382 22.4H38.15V4.4H40.382ZM48.3813 6.848C48.3813 14.048 56.1213 15.02 56.1213 20.204C56.1213 22.004 55.3293 22.652 54.0693 22.652C52.8093 22.652 52.0173 22.004 52.0173 20.204V18.404H48.2733V19.952C48.2733 23.984 50.2893 26.288 54.1773 26.288C58.0653 26.288 60.0813 23.984 60.0813 19.952C60.0813 12.752 52.3413 11.78 52.3413 6.596C52.3413 4.796 53.0613 4.112 54.3213 4.112C55.5813 4.112 56.3013 4.796 56.3013 6.596V7.64H60.0453V6.848C60.0453 2.816 58.0653 0.512 54.2133 0.512C50.3613 0.512 48.3813 2.816 48.3813 6.848ZM61.1982 4.4H65.3382V26H69.2982V4.4H73.4382V0.799998H61.1982V4.4ZM78.8902 26H82.8502V17.648L87.8542 0.799998H84.0742L81.0502 12.284L78.0262 0.799998H73.8862L78.8902 17.648V26ZM89.4556 26H99.9316V22.4H93.4156V0.799998H89.4556V26ZM105.615 4.4H112.455V0.799998H101.655V26H112.455V22.4H105.615V15.02H111.051V11.42H105.615V4.4Z" fill="white"/>
</svg>
