<svg width="20" height="20" viewBox="0 0 20 20" fill="none" xmlns="http://www.w3.org/2000/svg">
<path d="M19.5235 19.3607L13.9127 13.5257C15.3438 12.0904 16.2304 10.1118 16.2304 7.92962C16.2304 3.557 12.6734 0 8.3008 0C3.92818 0 0.371185 3.557 0.371185 7.92962C0.371185 12.3022 3.92818 15.8592 8.3008 15.8592C10.2201 15.8592 11.9817 15.1731 13.3546 14.0347L18.979 19.8841C19.053 19.9615 19.1519 20 19.2512 20C19.3456 20 19.4396 19.9649 19.5129 19.8946C19.6632 19.75 19.6677 19.511 19.5235 19.3607ZM8.3008 15.104C4.34468 15.104 1.12639 11.8857 1.12639 7.92962C1.12639 3.97349 4.34468 0.755201 8.3008 0.755201C12.2569 0.755201 15.4752 3.97349 15.4752 7.92962C15.4752 11.8857 12.2565 15.104 8.3008 15.104Z" fill="white"/>
</svg>
