<svg width="20" height="20" viewBox="0 0 20 20" fill="none" xmlns="http://www.w3.org/2000/svg">
<g clip-path="url(#clip0)">
<path d="M9.78186 17.5426C9.78186 16.4894 8.92814 15.6357 7.87515 15.6357C6.82198 15.6357 5.96826 16.4894 5.96826 17.5424C5.96826 18.5956 6.82198 19.4493 7.87515 19.4493C8.92758 19.4482 9.78073 18.5952 9.78186 17.5426ZM6.64459 17.5426C6.64459 16.8629 7.19543 16.312 7.87515 16.312C8.55469 16.312 9.10553 16.8629 9.10553 17.5424C9.10553 18.2221 8.55469 18.773 7.87515 18.773C7.19581 18.7722 6.64535 18.2218 6.64459 17.5426Z" fill="white"/>
<path d="M14.9355 19.4493C15.9887 19.4495 16.8424 18.5958 16.8424 17.5426C16.8426 16.4894 15.9889 15.6357 14.9357 15.6357C13.8825 15.6357 13.0288 16.4894 13.0288 17.5426C13.0301 18.595 13.8829 19.448 14.9355 19.4493ZM14.9355 16.312C15.615 16.312 16.1661 16.8629 16.1661 17.5424C16.1663 18.222 15.6152 18.773 14.9357 18.773C14.2562 18.773 13.7051 18.2221 13.7051 17.5426C13.7059 16.8634 14.2564 16.313 14.9355 16.312Z" fill="white"/>
<path d="M0.338162 1.20777H2.40092C3.07969 1.20513 3.65846 1.69935 3.76187 2.3704L5.39475 12.6849C5.54892 13.6851 6.41169 14.422 7.42372 14.418H17.5169C17.7035 14.418 17.8551 14.2665 17.8551 14.0798C17.8551 13.893 17.7035 13.7417 17.5169 13.7417H7.42372C6.74494 13.7443 6.16618 13.2499 6.06277 12.579L5.78518 10.8254H16.1223C16.9976 10.825 17.7765 10.2706 18.0634 9.44388L19.9812 3.90873C20.0173 3.80532 20.0008 3.69096 19.9374 3.60171C19.8738 3.51264 19.7712 3.45961 19.6617 3.45961H4.61897L4.42989 2.26453C4.27572 1.26439 3.41295 0.527486 2.40092 0.531449H0.338162C0.151343 0.531449 0 0.68298 0 0.869611C0 1.05643 0.151343 1.20777 0.338162 1.20777ZM19.1866 4.13612L17.4244 9.22233C17.2319 9.77694 16.7094 10.1489 16.1223 10.1491H5.678L4.72597 4.13593L19.1866 4.13612Z" fill="white"/>
</g>
<defs>
<clipPath id="clip0">
<rect width="20" height="20" fill="white"/>
</clipPath>
</defs>
</svg>
