<svg width="20" height="20" viewBox="0 0 20 20" fill="none" xmlns="http://www.w3.org/2000/svg">
<path d="M16.0047 14.2963L12.8203 12.7043C12.52 12.554 12.3333 12.252 12.3333 11.916V10.789C12.4097 10.6957 12.49 10.5893 12.573 10.472C12.986 9.88867 13.317 9.23933 13.5577 8.539C14.028 8.32333 14.3333 7.85833 14.3333 7.33333V6C14.3333 5.679 14.2133 5.368 14 5.125V3.352C14.0187 3.16867 14.092 2.07733 13.3027 1.177C12.618 0.396 11.507 0 10 0C8.49301 0 7.38201 0.396 6.69734 1.17667C5.90801 2.077 5.98134 3.16867 6.00001 3.352V5.125C5.78668 5.368 5.66668 5.679 5.66668 6V7.33333C5.66668 7.739 5.85101 8.11733 6.16568 8.36967C6.47101 9.57867 7.11001 10.4897 7.33334 10.782V11.885C7.33334 12.2077 7.15734 12.5037 6.87434 12.6583L3.90068 14.2803C2.93368 14.808 2.33334 15.8193 2.33334 16.9207V18C2.33334 19.582 7.34834 20 10 20C12.6517 20 17.6667 19.582 17.6667 18V16.9857C17.6667 15.8397 17.0297 14.809 16.0047 14.2963ZM17 18C17 18.4523 14.5293 19.3333 10 19.3333C5.47068 19.3333 3.00001 18.4523 3.00001 18V16.9207C3.00001 16.0637 3.46734 15.276 4.21968 14.866L7.19334 13.244C7.69101 12.9723 8.00001 12.4513 8.00001 11.885V10.5453L7.92234 10.4527C7.91434 10.443 7.09734 9.45467 6.78568 8.09767L6.75534 7.96567L6.64168 7.89233C6.44868 7.76767 6.33334 7.55867 6.33334 7.33333V6C6.33334 5.813 6.41268 5.63867 6.55668 5.50833L6.66668 5.40933V3.33333L6.66368 3.28967C6.66268 3.28067 6.54934 2.35667 7.19868 1.616C7.75101 0.986 8.69368 0.666667 10 0.666667C11.3017 0.666667 12.2423 0.983667 12.7953 1.60933C13.4443 2.343 13.337 3.28167 13.3363 3.28967L13.3333 5.40933L13.4433 5.50867C13.5873 5.63867 13.6667 5.813 13.6667 6V7.33333C13.6667 7.62433 13.476 7.879 13.1927 7.96633L13.0267 8.01733L12.9733 8.18233C12.7503 8.876 12.4327 9.51667 12.0287 10.0867C11.9297 10.227 11.8333 10.3513 11.7497 10.4463L11.6667 10.541V11.916C11.6667 12.506 11.9943 13.0363 12.522 13.3003L15.7063 14.8923C16.5043 15.2913 17 16.0933 17 16.9857V18Z" fill="white"/>
</svg>
